<svg width="21" height="21" viewBox="0 0 21 21" fill="none" xmlns="http://www.w3.org/2000/svg">
<path fill-rule="evenodd" clip-rule="evenodd" d="M1.21908 1.21915C1.8924 0.545832 2.98406 0.545832 3.65738 1.21915L19.1501 16.7119C19.8234 17.3852 19.8234 18.4769 19.1501 19.1502C18.4768 19.8235 17.3851 19.8235 16.7118 19.1502L1.21908 3.65745C0.545765 2.98413 0.545765 1.89247 1.21908 1.21915Z" fill="white"/>
<path fill-rule="evenodd" clip-rule="evenodd" d="M19.1502 1.58847C19.8236 2.26179 19.8236 3.35345 19.1502 4.02677L3.6575 19.5195C2.98418 20.1928 1.89252 20.1928 1.2192 19.5195C0.545883 18.8462 0.545883 17.7545 1.2192 17.0812L16.7119 1.58847C17.3853 0.91515 18.4769 0.91515 19.1502 1.58847Z" fill="white"/>
</svg>
