<svg width="16" height="16" viewBox="0 0 16 16" fill="none" xmlns="http://www.w3.org/2000/svg">
<path fill-rule="evenodd" clip-rule="evenodd" d="M14.0017 8C14.0017 8.272 13.9777 8.528 13.9457 8.784L15.6337 10.104C15.7857 10.224 15.8257 10.44 15.7297 10.616L14.1297 13.384C14.0337 13.56 13.8257 13.632 13.6417 13.56L11.6497 12.76C11.2337 13.072 10.7857 13.344 10.2977 13.544L9.99373 15.664C9.96973 15.856 9.80173 16 9.60173 16H6.40173C6.20173 16 6.03373 15.856 6.00973 15.664L5.70573 13.544C5.21773 13.344 4.76973 13.08 4.35373 12.76L2.36173 13.56C2.18573 13.624 1.96973 13.56 1.87373 13.384L0.273727 10.616C0.177727 10.44 0.217727 10.224 0.369727 10.104L2.05773 8.784C2.02573 8.528 2.00173 8.264 2.00173 8C2.00173 7.736 2.02573 7.472 2.05773 7.216L0.369727 5.896C0.217727 5.776 0.169727 5.56 0.273727 5.384L1.87373 2.616C1.96973 2.44 2.17773 2.368 2.36173 2.44L4.35373 3.24C4.76973 2.928 5.21773 2.656 5.70573 2.456L6.00973 0.336C6.03373 0.144 6.20173 0 6.40173 0H9.60173C9.80173 0 9.96973 0.144 9.99373 0.336L10.2977 2.456C10.7857 2.656 11.2337 2.92 11.6497 3.24L13.6417 2.44C13.8177 2.376 14.0337 2.44 14.1297 2.616L15.7297 5.384C15.8257 5.56 15.7857 5.776 15.6337 5.896L13.9457 7.216C13.9777 7.472 14.0017 7.728 14.0017 8ZM5.20186 8C5.20186 9.544 6.45786 10.8 8.00186 10.8C9.54586 10.8 10.8019 9.544 10.8019 8C10.8019 6.456 9.54586 5.2 8.00186 5.2C6.45786 5.2 5.20186 6.456 5.20186 8Z" fill="#1A6AE3"/>
</svg>
